<svg width="32" height="32" viewBox="0 0 32 32" fill="none" xmlns="http://www.w3.org/2000/svg">
  <defs>
    <linearGradient id="gradient" x1="0%" y1="0%" x2="100%" y2="100%">
      <stop offset="0%" style="stop-color:#a855f7;stop-opacity:1" />
      <stop offset="100%" style="stop-color:#ec4899;stop-opacity:1" />
    </linearGradient>
  </defs>
  <rect width="32" height="32" rx="8" fill="url(#gradient)"/>
  <path d="M16 8C12.686 8 10 10.686 10 14C10 17.314 12.686 20 16 20C19.314 20 22 17.314 22 14C22 10.686 19.314 8 16 8ZM16 18C13.791 18 12 16.209 12 14C12 11.791 13.791 10 16 10C18.209 10 20 11.791 20 14C20 16.209 18.209 18 16 18Z" fill="white"/>
  <path d="M16 12C14.895 12 14 12.895 14 14C14 15.105 14.895 16 16 16C17.105 16 18 15.105 18 14C18 12.895 17.105 12 16 12Z" fill="white"/>
  <path d="M8 22H24C24.552 22 25 22.448 25 23C25 23.552 24.552 24 24 24H8C7.448 24 7 23.552 7 23C7 22.448 7.448 22 8 22Z" fill="white"/>
</svg>
