<svg width="32" height="32" viewBox="0 0 32 32" fill="none" xmlns="http://www.w3.org/2000/svg">
  <rect width="32" height="32" rx="6" fill="#74C365"/>
  <path d="M8 10C8 8.89543 8.89543 8 10 8H22C23.1046 8 24 8.89543 24 10V12C24 13.1046 23.1046 14 22 14H10C8.89543 14 8 13.1046 8 12V10Z" fill="white"/>
  <path d="M8 18C8 16.8954 8.89543 16 10 16H22C23.1046 16 24 16.8954 24 18V20C24 21.1046 23.1046 22 22 22H10C8.89543 22 8 21.1046 8 20V18Z" fill="white"/>
  <circle cx="12" cy="11" r="1" fill="#74C365"/>
  <circle cx="12" cy="19" r="1" fill="#74C365"/>
</svg>
